<?xml version="1.0" encoding="UTF-8" standalone="no"?>
<!-- Created with Inkscape (http://www.inkscape.org/) -->

<svg
   width="10.085069mm"
   height="13.229169mm"
   viewBox="0 0 10.085068 13.229169"
   version="1.1"
   id="svg18711"
   inkscape:version="1.1.1 (3bf5ae0d25, 2021-09-20)"
   sodipodi:docname="Иконка_Пациент.svg"
   xmlns:inkscape="http://www.inkscape.org/namespaces/inkscape"
   xmlns:sodipodi="http://sodipodi.sourceforge.net/DTD/sodipodi-0.dtd"
   xmlns="http://www.w3.org/2000/svg"
   xmlns:svg="http://www.w3.org/2000/svg">
  <sodipodi:namedview
     id="namedview18713"
     pagecolor="#ffffff"
     bordercolor="#666666"
     borderopacity="1.0"
     inkscape:pageshadow="2"
     inkscape:pageopacity="0.0"
     inkscape:pagecheckerboard="0"
     inkscape:document-units="mm"
     showgrid="false"
     inkscape:zoom="3.1108586"
     inkscape:cx="41.306924"
     inkscape:cy="111.38404"
     inkscape:window-width="2400"
     inkscape:window-height="1271"
     inkscape:window-x="-9"
     inkscape:window-y="-9"
     inkscape:window-maximized="1"
     inkscape:current-layer="layer1" />
  <defs
     id="defs18708" />
  <g
     inkscape:label="Слой 1"
     inkscape:groupmode="layer"
     id="layer1"
     transform="translate(55.84278,-43.160005)">
    <g
       id="g4785-5-4-4-45"
       transform="matrix(0.02585915,0,0,0.02583822,-57.420188,43.160005)"
       style="fill:#c9355e;fill-opacity:1;stroke-width:10.2358">
      <path
         id="path4783-8-3-6-2"
         d="m 76,512 h 360 c 8.284,0 15,-6.716 15,-15 0,-93.882 -35.145,-116.163 -89.519,-132.782 -23.13,-7.07 -41.327,-12.653 -51.664,-33.218 H 376 c 5.717,0 10.938,-3.25 13.46,-8.38 C 390.748,320.001 421,257.426 421,165 v -6.667 C 421,80.804 351.478,0 256,0 161.66,0 91,79.685 91,158.333 V 165 c 0,92.426 30.252,155.001 31.54,157.62 2.523,5.13 7.743,8.38 13.46,8.37 h 66.182 c -10.337,20.574 -28.534,26.158 -51.663,33.228 C 97.157,380.528 61,402.024 61,497 c 0,8.284 6.716,15 15,15 z m 15.36,-30 c 1.019,-20.175 4.171,-35.219 9.001,-46.689 53.569,11.503 104.605,17.261 155.639,17.261 51.034,0 102.07,-5.758 155.639,-17.261 4.83,11.47 7.982,26.514 9.001,46.689 z M 181,226 v -15.721 c 47.426,-3.59 107.804,-18.111 135.141,-57.049 8.987,25.999 14.859,43.837 14.859,69.218 0,42.249 -31.437,79.203 -76,78.521 C 214.485,300.35 181,267.523 181,226 Z m -60,-61 c 0,-74.439 60.561,-135 135,-135 74.439,0 135,60.561 135,135 0,66.461 -17.209,116.868 -24.864,136 H 328.844 C 349.504,280.307 361,251.593 361,222.448 361,178.877 346.887,155.163 330.354,100.647 328.196,93.532 321.151,89.071 313.799,90.162 306.445,91.253 301,97.565 301,105 c 0,74.036 -133.76,75.989 -135.1,76 -8.245,0.055 -14.9,6.754 -14.9,15 v 30 c 0,28.419 11.406,55.283 31.572,75 H 145.866 C 138.203,281.851 121,231.451 121,165 Z m 38.288,227.907 c 27.958,-8.546 62.071,-18.981 75.859,-64.056 6.883,1.392 13.922,2.121 21.029,2.121 6.843,0 13.748,-0.657 20.622,-1.992 0.03,-0.006 0.059,-0.014 0.089,-0.02 13.81,44.982 47.89,55.408 75.825,63.947 14.244,4.354 27.368,8.37 38.226,16.019 -92.363,18.119 -177.51,18.119 -269.875,0 10.858,-7.649 23.981,-11.665 38.225,-16.019 z"
         inkscape:connector-curvature="0"
         style="fill:#c9355e;fill-opacity:1;stroke-width:10.2358" />
    </g>
  </g>
</svg>
